<svg xmlns="http://www.w3.org/2000/svg" viewBox="0 0 373 352" enable-background="new 0 0 373 352"><path fill="#d1201a" d="m288 86.4l13.8-17.1 3.4-1.1 21.2 18.4 7.1 13.4-21.2 15.1z"/><path d="m308.6 59.3l1.7-3.7c0 0 13.3 4.3 22.9 14.6s12.8 27.1 12.8 27.1l-4.8 1.2-32.6-39.2" fill="#262626"/><path fill="#2980b9" d="m331 192l22 2-1 9-2 27-6 7-20-7z"/><path fill="#16a085" d="m69 115l-19-11v-6l23-30 4 2 16 17z"/><path fill="#503b2c" d="m171 26l3 20h37l2-23-40 1z"/><path fill="#8eb021" d="m90.7 313l15-19 33 19-11 22-12-1-26-18z"/><path fill="#d95459" d="m57 223l-20 7-2-3-9-20 2-20h25z"/><path fill="#ffa800" d="m246 311l10 20 13 1 24-9v-13l-13-17-25 10z"/><circle cx="191.5" cy="183.5" r="142.5" fill="#475677"/><path d="m148 134v17c0 0 1 3 3 3s2-3 6-3 6 3 6 6-3 6-6 6-3-3-6-3-3 3-3 3v16h45v-45h-18c0 0-2 0-2-2s3-3 3-6-2-6-6-6-6 3-6 6 4 5 4 6 0 2-2 2-18 0-18 0" fill="#a7d773"/><path d="m193 224h-19c0 0-1 0-1-2s3-2 3-6-3-7-6-7-6 2-6 8c0 4 3 3 3 5s-2 2-2 2h-17v-17c0 0-1-2-3-2s-2 3-6 3-6-3-6-6 2-6 6-6 5 4 6 4 3-1 3-4 0-17 0-17h45v45" fill="#f0d375"/><path d="m238 179v18c0 0 0 2-3 2s-2-3-6-3-6 3-6 7 4 5 6 5 4-3 6-3 3 1 3 2 0 17 0 17h-17c0 0-3 0-3 3s3 2 3 7-6 5-6 5-6 0-6-5 3-4 3-7-3-3-3-3h-16v-45h45" fill="#e082a6"/><path d="m193 134h17c0 0 2 0 2 2s-3 4-3 7 1 6 6 6 6-3 6-6-3-4-3-6 1-3 3-3 17 0 17 0v17c0 0 0 3 3 3s2-3 6-3 6 4 6 6-1 6-6 6-4-3-6-3-3 1-3 2 0 17 0 17h-45v-45" fill="#6ed1e4"/><path d="m157 215v-52c0 0 6-1 6-6s-6-6-6-6v-8h52c0 0 0 6 6 6 5 0 6-3 6-3l8 7v43c0 0-6 1-6 6s6 6 6 6v7h-53c0 0 0-6-6-6s-6 6-6 6h-7" fill="#ecf0f1"/><path d="m306.3 139c-2.4.5-4.1 2.3-4.7 4.5-.7.4-2.1.9-3.5.8l-3.9-20.2-18.3 3.6c-.2 1.4.3 2.7.7 3.5 2.2.5 4.1 2.3 4.5 4.7.6 3.3-1.5 6.4-4.7 7-3.3.6-6.4-1.5-7-4.7-.5-2.3.5-4.6 2.3-6 .1-1.5-.1-2.6-.6-3.5l-21.1 4.1 3.9 19.9c1.9.6 3.8-.3 4.5-.8.6-2.2 2.3-3.9 4.7-4.4 3.3-.6 6.4 1.5 7 4.7s-1.5 6.4-4.7 7c-2.3.5-4.6-.5-6-2.3-2-.2-3.5.2-4.5 1l3.7 18.9 20.3-3.9c1 .8 1.8 2.2 1.9 4.2-1.9 1.3-3 3.7-2.6 6.1.6 3.3 3.8 5.4 7 4.7 3.3-.6 5.4-3.8 4.7-7-.5-2.4-2.4-4.3-4.7-4.7-.5-1.2-.8-3 .3-4.6l17.2-3.3-3.7-19.3c.9-.5 2-.7 3.5-.6 1.3 1.8 3.6 2.8 6 2.4 3.3-.6 5.4-3.8 4.7-7-.5-3.3-3.7-5.5-6.9-4.8" fill="#75a1eb"/><g fill="#febc9c"><path d="m232.4 105.8c-.3.4-.3 1.1.1 1.4.4.3 1.1.3 1.4-.1l3.8-4.7.8.6-5 6.2c-.3.4-.3 1.1.1 1.4.4.3 1.1.3 1.4-.1l5-6.2.8.6-5.7 7c-.3.4-.3 1.1.1 1.4.4.3 1.1.3 1.4-.1l5.7-7 .8.6-5 6.2c-.3.4-.3 1.1.1 1.4.4.3 1.1.3 1.4-.1l8.2-10.1.6-.8-.2 5c0 0 1.7 2.7 2-.9.3-3.6.7-7.2.7-7.2l3.8-4.7-8.6-6.9-13.7 17.1"/><path d="m281.7 135.4c-3.5-.9-1.5 1.6-1.5 1.6l4.8 1.5-.9.3-12.2 4.4c-.5.2-.8.8-.6 1.3.2.5.8.8 1.3.6l7.5-2.7.3.9-8.5 3c-.5.2-.8.8-.6 1.3.2.5.8.8 1.3.6l8.5-3 .3.9-7.5 2.7c-.5.2-.8.8-.6 1.3.2.5.8.8 1.3.6l7.5-2.7.3.9-5.6 2c-.5.2-.8.8-.6 1.3.2.5.8.8 1.3.6l20.7-7.4-3.7-10.4-5.6 2c-.2.1-3.7-.7-7.2-1.6"/></g><g fill="#ecf0f1"><path d="m244.2 89.6l9.5 8.9 2.5-3.1-10.1-8.2z"/><path d="m292.4 135l3.4 11.7 3.4-1.1-3.4-11.7-1.4.1z"/></g><path d="m255.1 98.4l-11-10.2 20.6-20.7c0 0 2-.9 8.9-3.1 6.9-2.1 31.1-8.3 31.1-8.3s15.1 2 28.2 17.6c13 15.7 10.9 29.4 10.9 29.4l-15.8 32.4c0 0-3.1 3.9-6.6 5s-23.5 6.7-23.5 6.7l-4.3-13.8 22.1-6.6 13.7-24.9c0 0-10.6-6-17.1-13.8s-8.8-16.1-8.8-16.1l-29.9 6.7-18.5 19.7" fill="#ff641a"/><path d="m321.8 97c0 0-5.5 2-10-.4-4.5-2.4-4.5-2.4-5.9-2.2s1.3-1.6-.6-5.6c-1.9-4.1.7-7.2.7-7.2l15.8 15.4" fill="#febc9c"/><path d="m337 72.8c-3.8-6.7-12.5-8.7-19.9-4.7-2.7 1.2-10.3 5.3-11.3 13.8-1.3 10.4 7.5 15.8 7.5 15.8l.1-3.2c4.7 3.3 11.4 3.4 17.1-.2 7.6-4.8 10.5-14.5 6.5-21.5" fill="#5e4534"/><path d="m307.2 78.8c0 0 1.5 15.7 13.4 16 3 .1 6.9-.9 6.9-.9s-7.1 5-14.8-.4l-.1 3.1c0 .1-9.7-7.5-5.4-17.8" fill="#503b2c"/><path d="m362.6 190.3l4-1.2c0 0 5.6 12.8 4.2 26.8-1.4 14.1-11.8 27.5-11.8 27.5l-4.1-2.8 7.7-50.3" fill="#262626"/><g fill="#febc9c"><path d="m277.4 163.9c-.6 0-1 .5-1 1 0 .6.5 1 1 1l6-.3v1l-8 .3c-.6 0-1 .5-1 1 0 .6.5 1 1 1l8-.3v1l-9 .4c-.6 0-1 .5-1 1 0 .6.5 1 1 1l9-.4v1l-8 .3c-.6 0-1 .5-1 1 0 .6.5 1 1 1l13-.6h1l-3.9 3.2c0 0-.9 3 2 .9 2.9-2.1 5.8-4.3 5.8-4.3l6-.3-.5-11-21.4 1.1"/><path d="m287.8 220.5c-1.7-3.2-2.2-.1-2.2-.1l2.1 4.6-.9-.5-11.4-6.3c-.5-.3-1.1-.1-1.4.4-.3.5-.1 1.1.4 1.4l7 3.9-.5.9-7.9-4.3c-.5-.3-1.1-.1-1.4.4-.3.5-.1 1.1.4 1.4l7.9 4.3-.5.9-7-3.9c-.5-.3-1.1-.1-1.4.4-.3.5-.1 1.1.4 1.4l7 3.9-.5.9-5.3-2.9c-.5-.3-1.1-.1-1.4.4-.3.5-.1 1.1.4 1.4l19.3 10.6 5.3-9.6-5.3-2.9c.2-.3-1.4-3.5-3.1-6.7"/></g><g fill="#ecf0f1"><path d="m297.4 162l-.5 13.1 4-.2-.5-13z"/><path d="m295.2 228.2l-6.6 10.3 3.1 1.9 6.6-10.3-1.1-1z"/></g><path d="m298 176l.4-15 29.1 1.8c0 0 2 .9 8.2 4.7 6.2 3.7 26.8 17.9 26.8 17.9s8.5 12.6 5.4 32.8c-3.1 20.2-14.8 27.7-14.8 27.7l-34.6 9.5c0 0-5 .2-8.1-1.7s-20.6-13.1-20.6-13.1l7.5-12.3 19.5 12.2 27.8-6.2c0 0-2.5-11.9-.9-22 1.6-10.1 6.3-17.3 6.3-17.3l-24.8-18-27.2-1" fill="#3498db"/><path d="m343.1 225.1c0 0-5.1-2.8-6.3-7.7-1.2-5-1.2-5-2.3-5.9-1-1 2-.1 3.8-4.2 1.8-4.1 5.8-4.3 5.8-4.3l-1 22.1" fill="#febc9c"/><path d="m343 208.2c0 0-4-7 9-7s20 7 20 13c0 2-1 2-1 2s2 15-14 15-18-10-18-11 2-2 2-2-4-5 2-10" fill="#2b2b2b"/><g fill="#262626"><path d="m342 218.2c0 0 4 10 17 10 5 0 7-1 7-1s-4 5-16 2-10-10-8-11"/><path d="m38.5 101.6l-4-.8c0 0 .9-13.9 8.6-25.8s23.1-19 23.1-19l2.4 4.4-30.1 41.2"/></g><path d="m128.5 154c-2.3.7-3.9 2.6-4.3 4.8-.7.4-2 1.1-3.4 1l-5.6-19.8-17.9 5c0 1.4.6 2.7 1 3.4 2.3.3 4.2 2 4.9 4.3.9 3.2-1 6.5-4.2 7.4-3.2.9-6.5-1-7.4-4.2-.6-2.3.1-4.7 1.8-6.1 0-1.5-.3-2.6-.9-3.5l-20.7 5.8 5.5 19.5c1.9.4 3.7-.6 4.5-1.1.4-2.2 2-4.1 4.3-4.7 3.2-.9 6.5 1 7.4 4.2.9 3.2-1 6.5-4.2 7.4-2.3.6-4.6-.1-6.1-1.8-2-.1-3.4.5-4.4 1.4l5.2 18.6 19.9-5.6c1 .8 2 2 2.2 4-1.8 1.5-2.7 3.9-2 6.3.9 3.2 4.2 5.1 7.4 4.2 3.2-.9 5.1-4.2 4.2-7.4-.7-2.4-2.7-4-5-4.3-.6-1.2-1-2.9-.1-4.6l16.9-4.7-5.3-18.8c.8-.5 2-.9 3.4-.9 1.5 1.7 3.9 2.5 6.2 1.9 3.2-.9 5.1-4.2 4.2-7.4-1-3.3-4.3-5.2-7.5-4.3" fill="#f35f7b"/><g fill="#8e725e"><path d="m102.1 164.1c.5.2 1.1 0 1.3-.5.2-.5 0-1.1-.5-1.3l-5.4-2.5.4-.9 7.3 3.4c.5.2 1.1 0 1.3-.5.2-.5 0-1.1-.5-1.3l-7.3-3.4.4-.9 8.2 3.8c.5.2 1.1 0 1.3-.5.2-.5 0-1.1-.5-1.3l-8.2-3.8.4-.9 7.3 3.4c.5.2 1.1 0 1.3-.5.2-.5 0-1.1-.5-1.3l-11.8-5.5-.9-.4 4.9-1c0 0 2.2-2.3-1.4-1.7-3.6.6-7.1 1.1-7.1 1.1l-5.4-2.5-4.6 10 20 9"/><path d="m118.8 109c0 3.6 1.9 1.1 1.9 1.1l.3-5 .6.8 7.2 10.8c.3.5.9.6 1.4.3.5-.3.6-.9.3-1.4l-4.5-6.6.8-.6 5 7.5c.3.5.9.6 1.4.3.5-.3.6-.9.3-1.4l-5-7.5.8-.6 4.5 6.6c.3.5.9.6 1.4.3.5-.3.6-.9.3-1.4l-4.5-6.6.8-.6 3.3 5c.3.5.9.6 1.4.3.5-.3.6-.9.3-1.4l-12.2-18.3-9.1 6.1 3.3 5c0 .1 0 3.7 0 7.3"/></g><g fill="#ecf0f1"><path d="m83.5 156.6l6.4-11.4-3.6-1.7-5.5 11.8z"/><path d="m115.8 98.8l10.6-6.1-1.9-3.1-10.6 6.1.5 1.4z"/></g><path d="m89.4 143.9l-7.2 13.2-25.1-14.9c0 0-1.4-1.7-5.2-7.9s-15.6-28.2-15.6-28.2-1.7-15.1 10.3-31.6 25.9-17.8 25.9-17.8l35.1 7.4c0 0 4.5 2.1 6.4 5.2s12.3 21.1 12.3 21.1l-12.3 7.6-11.8-19.8-27.5-7.2c0 0-3.2 11.7-9.2 20-6 8.2-13.5 12.5-13.5 12.5l13.8 27.3 23.6 13.1" fill="#1abc9c"/><path d="m71.8 79.5c0 0 3.3 4.8 2.1 9.8s-1.2 5-.7 6.3-1.8-.8-5.3 1.9c-3.5 2.8-7.1 1.1-7.1 1.1l11-19.1" fill="#8e725e"/><path d="m64.2 94.6c0 0 .3 8.1-11.2 2.1-11.6-6-14.6-15.4-11.8-20.7.9-1.8 1.8-1.3 1.8-1.3s5.1-14.2 19.3-6.9c14.2 7.3 11.4 17.1 10.9 18-.5.9-2.7.9-2.7.9s1.3 6.2-6.3 7.9" fill="#2b2b2b"/><path d="m165.7 14.4l-2-3.6c0 0 11.3-8.1 25.4-9.7 14.1-1.6 29.4 5.8 29.4 5.8l-1.9 4.6-50.9 2.9" fill="#262626"/><path d="m193.2 58.4c-.9 2.2-.4 4.7 1.2 6.4-.1.8-.4 2.2-1.3 3.3l-19-7.8-7.1 17.2c1.1.9 2.4 1.2 3.3 1.3 1.7-1.6 4.2-2.1 6.4-1.2 3.1 1.3 4.5 4.8 3.3 7.8-1.3 3.1-4.8 4.5-7.8 3.3-2.2-.9-3.6-3-3.7-5.2-1.2-.9-2.3-1.4-3.3-1.5l-8.2 19.9 18.8 7.7c1.5-1.3 1.8-3.3 1.9-4.2-1.5-1.7-2-4.1-1.1-6.3 1.3-3.1 4.8-4.5 7.8-3.3 3.1 1.3 4.5 4.8 3.3 7.8-.9 2.2-3 3.6-5.2 3.7-1.3 1.6-1.7 3-1.6 4.3l17.8 7.3 7.8-19.1c1.2-.4 2.8-.3 4.5.7 0 2.3 1.4 4.6 3.7 5.5 3.1 1.3 6.6-.2 7.8-3.3 1.3-3.1-.2-6.6-3.3-7.8-2.3-.9-4.9-.3-6.5 1.3-1.3-.3-3-1-3.7-2.8l6.6-16.2-18.1-7.4c.1-1 .5-2.1 1.4-3.3 2.3-.1 4.4-1.5 5.3-3.7 1.3-3.1-.2-6.6-3.3-7.8s-6.4.3-7.7 3.4" fill="#c99ad6"/><g fill="#febc9c"><path d="m157.7 103.2c.1.5.7.9 1.2.7.5-.1.9-.7.7-1.2l-1.5-5.8 1-.3 2 7.7c.1.5.7.9 1.2.7.5-.1.9-.7.7-1.2l-2-7.7 1-.3 2.3 8.7c.1.5.7.9 1.2.7.5-.1.9-.7.7-1.2l-2.3-8.7 1-.3 2 7.7c.1.5.7.9 1.2.7.5-.1.9-.7.7-1.2l-3.3-12.6-.3-1 3.9 3.1c0 0 3.2.2.5-2.2-2.7-2.4-5.4-4.8-5.4-4.8l-1.5-5.8-10.6 2.8 5.6 21.5"/><path d="m210.8 81.3c-2.8 2.3.4 2.2.4 2.2l4-3-.3 1-3.8 12.4c-.2.5.1 1.1.7 1.2.5.2 1.1-.1 1.2-.7l2.3-7.7 1 .3-2.6 8.6c-.2.5.1 1.1.7 1.2.5.2 1.1-.1 1.2-.7l2.6-8.6 1 .3-2.3 7.7c-.2.5.1 1.1.7 1.2.5.2 1.1-.1 1.2-.7l2.3-7.7 1 .3-1.7 5.7c-.2.5.1 1.1.7 1.2.5.2 1.1-.1 1.2-.7l6.4-21.1-10.5-3.2-1.7 5.7c-.1.5-2.9 2.8-5.7 5.1"/></g><g fill="#ecf0f1"><path d="m151.7 84.1l12.8-2.3-1-3.8-12.6 3.2z"/><path d="m216.8 72.4l11.5 4.3 1.1-3.4-11.4-4.3-.7 1.2z"/></g><path d="m165.2 80.6l-14.8 2.8-4.4-28.8c0 0 .5-2.2 2.8-9 2.4-6.8 11.9-29.9 11.9-29.9s10.6-11 30.9-12.1 30.1 8.7 30.1 8.7l16.5 31.9c0 0 1.3 4.8.1 8.2-1.2 3.4-8.5 22.9-8.5 22.9l-13.6-4.7 7.8-21.7-11.7-25.9c0 0-11.1 4.9-21.3 5.5-10.2.6-18.2-2.5-18.2-2.5l-12.4 28 4.8 26.6" fill="#5e4534"/><path d="m203.8 26.2c0 0-1.7 5.6-6.2 7.8s-4.6 2.2-5.3 3.4-.5-1.9-4.9-2.9c-4.4-.9-5.4-4.8-5.4-4.8l21.8-3.5" fill="#febc9c"/><path d="m197.1 32c0 0-2 2-8 2s-13-4-13-17 7-16 14-16 16 1 16 16-7 17-9 15" fill="#fedb77"/><path d="m180.1 6c0 0-2 12 2 18s12 9 12 9-26 4-14-27" fill="#ffbd66"/><path d="M126.1,347l-0.4,4.1c0,0-13.9,0.5-26.5-6S78,324,78,324l4.1-2.8L126.1,347z" fill="#262626"/><path d="m171.9 258.8c1.8 1.6 4.3 2 6.4 1.1.8.4 2 1.1 2.7 2.3l-14 15.1 13.6 12.6c1.2-.7 2-1.9 2.4-2.6-.9-2.1-.5-4.6 1.1-6.4 2.3-2.4 6-2.6 8.5-.3 2.4 2.3 2.6 6 .3 8.5-1.6 1.8-4.1 2.3-6.2 1.6-1.3.8-2.1 1.7-2.5 2.6l15.8 14.7 13.8-14.9c-.7-1.8-2.5-2.8-3.3-3.2-2.1.8-4.5.4-6.3-1.2-2.4-2.3-2.6-6-.3-8.5 2.3-2.4 6-2.6 8.5-.3 1.7 1.6 2.3 4 1.7 6.2 1 1.8 2.3 2.7 3.5 3l13.1-14.1-15.2-14c.1-1.3.7-2.7 2.3-4 2.2.8 4.8.3 6.5-1.6 2.3-2.4 2.1-6.2-.3-8.5-2.4-2.3-6.2-2.1-8.5.3-1.7 1.8-2 4.4-1.1 6.6-.7 1.1-2 2.4-3.9 2.5l-12.9-11.9-13.3 14.4c-.9-.4-1.8-1.2-2.6-2.5.7-2.2.1-4.6-1.6-6.3-2.4-2.3-6.2-2.1-8.5.3-2.2 2.5-2.1 6.3.3 8.5" fill="#ec8d60"/><g fill="#febc9c"><path d="m181.9 277.4c.2-.5-.1-1.1-.6-1.3-.5-.2-1.1.1-1.3.6l-2 5.7-.9-.3 2.6-7.6c.2-.5-.1-1.1-.6-1.3-.5-.2-1.1.1-1.3.6l-2.6 7.6-.9-.3 2.9-8.5c.2-.5-.1-1.1-.6-1.3-.5-.2-1.1.1-1.3.6l-2.9 8.5-.9-.3 2.6-7.6c.2-.5-.1-1.1-.6-1.3-.5-.2-1.1.1-1.3.6l-4.3 12.3-.3.9-1.5-4.8c0 0-2.5-1.9-1.6 1.6.9 3.5 1.8 7 1.8 7l-2 5.7 10.4 3.6 7.2-20.7"/><path d="m125.5 266.3c3.6-.4.9-2 .9-2l-5 .2.8-.6 10-8.3c.4-.4.5-1 .1-1.4-.4-.4-1-.5-1.4-.1l-6.2 5.1-.6-.8 6.9-5.7c.4-.4.5-1 .1-1.4-.4-.4-1-.5-1.4-.1l-6.9 5.7-.6-.8 6.2-5.1c.4-.4.5-1 .1-1.4-.4-.4-1-.5-1.4-.1l-6.2 5.1-.6-.8 4.6-3.8c.4-.4.5-1 .1-1.4-.4-.4-1-.5-1.4-.1l-17 14 7 8.5 4.6-3.8c.1-.1 3.7-.5 7.3-.9"/></g><g fill="#ecf0f1"><path d="m176.3 296.7l-11.9-5.2-1.3 3.7 12.3 4.3z"/><path d="m115.6 270.3l-7.2-9.8-2.8 2.1 7.1 9.9 1.3-.6z"/></g><path d="m163.1 292.1l13.8 5.8-12.3 26.4c0 0-1.6 1.6-7.3 5.9s-26.5 18.4-26.5 18.4-14.9 3.3-32.5-7c-17.6-10.3-20.3-23.9-20.3-23.9l4-35.7c0 0 1.6-4.7 4.5-6.9s19.8-14.3 19.8-14.3l8.7 11.5-18.5 13.7-4.5 28c0 0 12 2 20.8 7.2 8.8 5.2 13.8 12.2 13.8 12.2l25.8-16.5 10.7-24.8" fill="#a5c63b"/><path d="m100.9 316c0 0 4.5-3.7 9.5-3.1 5.1.7 5.1.7 6.3.1 1.3-.6-.7 1.9 2.5 5.1 3.1 3.2 1.8 7 1.8 7l-20.1-9.1" fill="#febc9c"/><path d="m118.1 319.9c0 0-.9-2.7-6.3-5.3s-13.4-2.1-19.1 9.6c-5.7 11.7-.7 17.4 5.6 20.5s14.8 6.1 21.4-7.4c6.5-13.4 1-18.3-1.6-17.4" fill="#2b2b2b"/><g fill="#262626"><path d="m91 334c0 0 1-7 8-11s10-2 10-7-16-1-18 18"/><path d="m25.3 237.5l-3.2 2.6c0 0-9.9-9.8-13.8-23.4s.8-30 .8-30l4.9 1.1 11.3 49.7"/></g><g fill="#febc9c"><path d="m114.2 230.4c.5-.2.7-.8.5-1.3-.2-.5-.8-.7-1.3-.5l-5.5 2.5-.4-.9 7.3-3.3c.5-.2.7-.8.5-1.3-.2-.5-.8-.7-1.3-.5l-7.3 3.3-.4-.9 8.2-3.7c.5-.2.7-.8.5-1.3-.2-.5-.8-.7-1.3-.5l-8.2 3.7-.4-.9 7.3-3.3c.5-.2.7-.8.5-1.3-.2-.5-.8-.7-1.3-.5l-11.9 5.3-.9.4 2.4-4.4c0 0-.3-3.1-2.2-.1-1.9 3.1-3.8 6.1-3.8 6.1l-5.5 2.5 4.5 10 20-9.1"/><path d="m83.6 181.7c2.7 2.4 2.1-.7 2.1-.7l-3.6-3.5 1 .1 12.9 1.6c.5.1 1-.3 1.1-.9.1-.5-.3-1-.9-1.1l-7.9-1 .1-1 8.9 1.1c.5.1 1-.3 1.1-.9.1-.5-.3-1-.9-1.1l-8.9-1.1.1-1 7.9 1c.5.1 1-.3 1.1-.9.1-.5-.3-1-.9-1.1l-7.9-1 .1-1 6 .7c.5.1 1-.3 1.1-.9.1-.5-.3-1-.9-1.1l-21.8-2.7-1.4 10.9 6 .7c.1.2 2.8 2.6 5.6 4.9"/></g><g fill="#ecf0f1"><path d="m96.4 239.5l-4.5-12.3-3.6 1.7 5.3 11.8z"/><path d="m73.8 177.3l2.3-12-3.5-.6-2.3 12 1.3.5z"/></g><path d="m90.6 226.7l-25.4 9.3-27.9-7c5-1.8 7.9-6.8 6.4-11.2-1.2-3.4-4.6-5.5-8.3-5.5-.1-.7-.3-1.4-.4-2.1-.4-1.6-.9-3.3-1.4-4.9 3.9-1.4 6.5-4.3 6.5-7.6 0-4.7-5.4-8.5-12-8.5-.3 0-.6 0-.9 0l22.2-15.2 22.7 4.1 2.4-14.2c0 0-20.4-4-24-4.6-3.6-.6-8.1 1.5-8.1 1.5l-28.6 21.7c0 0-8.1 11.3-3.5 31.2 4.6 19.9 17.2 28.5 17.2 28.5s24.4 5.5 31.5 6.7c7.1 1.2 9.3 1.3 9.3 1.3l27.7-9.2-5.4-14.3" fill="#ef717a"/><path d="m30.2 197.8c0 0 6.3.5 9.4 4.6 3.1 4.1 3.1 4.1 4.5 4.6s-2 .9-2.4 5.5c-.4 4.6-4.4 6.4-4.4 6.4l-7.1-21.1" fill="#febc9c"/><path d="m7.7 200.9c0 0-2.9 2.8-2.9 4.7s1 2.8 1.9 2.8 1.9 0 3.8-3.7c1.9-3.7 5.7-8.4 14.3-8.4s16.2 3.6 16.2 13c0 1.9-1.9 4.7-1.9 4.7s1.9 10.3-15.2 10.3c-12.4 0-12.4-5.6-12.4-5.6s-1 1.9-4.8 1.9-5.7-3.9-5.7-8.5 3.8-9.4 6.7-11.2" fill="#f0d375"/><path d="m11.5 204.6c0 0 1.9-7.5 14.3-7.5s14.2 8.4 14.2 11.2-8.5-11.2-28.5-3.7" fill="#ffcd02"/><path d="m303.4 319.1l3.5 2.2c0 0-6 12.5-17.6 20.7-11.6 8.1-28.6 9-28.6 9l-.6-5 43.3-26.9" fill="#262626"/><g fill="#febc9c"><path d="m267.7 237.3c-.4-.4-1-.4-1.4 0s-.4 1 0 1.4l4.1 4.4-.7.7-5.5-5.8c-.4-.4-1-.4-1.4 0s-.4 1 0 1.4l5.5 5.8-.7.7-6.2-6.6c-.4-.4-1-.4-1.4 0s-.4 1 0 1.4l6.2 6.6-.7.7-5.5-5.8c-.4-.4-1-.4-1.4 0-.4.4-.4 1 0 1.4l8.9 9.5.7.7-4.9-.9c0 0-2.9 1.3.6 2.1 3.5.8 7 1.6 7 1.6l4.1 4.4 8-7.5-15.3-16.2"/><path d="m231.6 282.1c1.3-3.3-1.4-1.8-1.4-1.8l-2.1 4.5-.2-1-2.7-12.7c-.1-.5-.6-.9-1.2-.8-.5.1-.9.6-.8 1.2l1.6 7.8-1 .2-1.9-8.8c-.1-.5-.6-.9-1.2-.8-.5.1-.9.6-.8 1.2l1.9 8.8-1 .2-1.6-7.8c-.1-.5-.6-.9-1.2-.8-.5.1-.9.6-.8 1.2l1.6 7.8-1 .2-1.2-5.9c-.1-.5-.6-.9-1.2-.8-.5.1-.9.6-.8 1.2l4.5 21.5 10.8-2.3-1.2-5.9c.3.3 1.6-3 2.9-6.4"/></g><g fill="#ecf0f1"><path d="m282.1 251.2l-10.1 8.2 2.7 2.9 9.5-8.9z"/><path d="m230.6 292.8l-12.1 1.7.6 3.6 12.1-1.8v-1.4z"/></g><path d="m271.9 260.8l17 21 2.4 28.6c-3.3-4.2-9-5.2-12.7-2.4-2.8 2.2-3.7 6.1-2.5 9.7-.6.3-1.3.7-1.9 1.1-1.4.9-2.8 1.9-4.2 3-2.6-3.2-6.2-4.8-9.3-3.7-4.4 1.5-6.3 7.8-4.1 14.1.1.3.2.5.3.8l-21.4-16-3.5-22.7-14.2 2.4c0 0 2.9 20.6 3.5 24.2.6 3.6 4 7.2 4 7.2l29.8 20c0 0 13.3 4 30.6-6.8 17.3-10.8 21.3-25.5 21.3-25.5s-2.8-24.8-4-32c-1.2-7.1-1.8-9.3-1.8-9.3l-17.7-23.2-11.6 9.5" fill="#ffcd02"/><path d="m264.2 327.3c0 0-1.6-6.1 1.3-10.3 2.9-4.2 2.9-4.2 2.8-5.7s1.5 1.6 6 .5c4.4-1.1 7.5 2.1 7.5 2.1l-17.6 13.4" fill="#febc9c"/><path d="m274.4 347.7c0 0 3.6 1.8 5.3 1.2s2.3-1.8 2-2.7c-.3-.9-.6-1.8-4.8-2.4s-9.8-2.7-12.6-10.8c-2.8-8.1-1.7-16.5 7.1-19.6 1.8-.6 5 .3 5 .3s9.1-5.2 14.7 11.1c4 11.7-1.3 13.5-1.3 13.5s2.1.3 3.3 3.9c1.2 3.6-1.7 6.6-6.1 8.1-4.2 1.5-9.9-.5-12.6-2.6" fill="#e67e22"/><path d="m276.7 342.8c0 0-7.7.6-11.7-11.1s3.3-16.2 5.9-17.2c2.7-.8-7.7 11.9 5.8 28.3" fill="#d35400"/><g fill="#3498db"><path d="m170 167h5v24h-5z"/><path d="m177 174h5v17h-5z"/><path d="m184 179h5v12h-5z"/><path d="m191 174h5v17h-5z"/></g><g fill="#2980b9"><path d="m198 167h5v24h-5z"/><path d="m205 174h5v17h-5z"/><path d="m212 179h5v12h-5z"/><path d="m194 174h2v17h-2z"/></g></svg>